/* XPM */
static char *_e31f6354f48457ded02fe07f1006c78Y9jKg5PA5T8M4QxF[] = {
/* columns rows colors chars-per-pixel */
"64 64 238 2 ",
"   c #382B1A",
".  c #2C2D32",
"X  c #47391E",
"o  c #473D23",
"O  c #59481D",
"+  c #7E5C1A",
"@  c #584927",
"#  c #574735",
"$  c #514735",
"%  c #69552A",
"&  c #785D29",
"*  c #67563B",
"=  c #775D32",
"-  c #604F32",
";  c #7A6228",
":  c #796338",
">  c #726735",
",  c #474749",
"<  c #5A5345",
"1  c #5B5B5C",
"2  c #4A4F56",
"3  c #725B4A",
"4  c #625E52",
"5  c #625B46",
"6  c #6C6148",
"7  c #7A6548",
"8  c #6A6459",
"9  c #797054",
"0  c #5E5D65",
"q  c #6B6867",
"w  c #7C7467",
"e  c #787778",
"r  c #6E6D6D",
"t  c #596070",
"y  c #997D1F",
"u  c #816F1E",
"i  c #AD7F1F",
"p  c #805E21",
"a  c #8C6C2C",
"s  c #846727",
"d  c #926F2C",
"f  c #8B7726",
"g  c #987629",
"h  c #846933",
"j  c #8B7436",
"k  c #967636",
"l  c #956F30",
"z  c #A47B24",
"x  c #A47C28",
"c  c #A47E33",
"v  c #85694D",
"b  c #8A7946",
"n  c #947B45",
"m  c #867757",
"M  c #927958",
"N  c #856C55",
"B  c #837B67",
"V  c #837E75",
"C  c #B7881E",
"Z  c #AE961D",
"A  c #BFA71E",
"S  c #9A8B38",
"D  c #98862A",
"F  c #A78627",
"G  c #BA8A23",
"H  c #B58926",
"J  c #AA942A",
"K  c #B99C28",
"L  c #AB9938",
"P  c #B28832",
"I  c #BBA428",
"U  c #C69B19",
"Y  c #D8A61C",
"T  c #D4BA1B",
"R  c #CAAC1E",
"E  c #C59326",
"W  c #CA962C",
"Q  c #CD9A2D",
"!  c #C69728",
"~  c #D19E2C",
"^  c #D39D26",
"/  c #CA9A32",
"(  c #D29D32",
")  c #C18F23",
"_  c #C8AB29",
"`  c #D4A22C",
"'  c #DBA42D",
"]  c #DCAB2B",
"[  c #DAA827",
"{  c #CCB228",
"}  c #D7B826",
"|  c #D5A231",
" . c #DAA431",
".. c #DDA832",
"X. c #C9B336",
"o. c #E3B729",
"O. c #E3AB31",
"+. c #ECB732",
"@. c #E8AF2C",
"#. c #DEC519",
"$. c #EAC918",
"%. c #FCD61B",
"&. c #FEDB1C",
"*. c #F7D518",
"=. c #EECE16",
"-. c #FFE41D",
";. c #FFE619",
":. c #DDC33A",
">. c #DDC424",
",. c #EBC826",
"<. c #F4CB24",
"1. c #F8CA2C",
"2. c #EED325",
"3. c #FBD522",
"4. c #FFDA21",
"5. c #F6D727",
"6. c #EFD237",
"7. c #FFE323",
"8. c #FFEA23",
"9. c #FFE22B",
"0. c #F5E129",
"q. c #FFE533",
"w. c #FFEA3A",
"e. c #FFF337",
"r. c #FFF020",
"t. c #958557",
"y. c #928648",
"u. c #A49646",
"i. c #A1854D",
"p. c #B3A751",
"a. c #978566",
"s. c #98926A",
"d. c #888378",
"f. c #968C77",
"g. c #989379",
"h. c #87846F",
"j. c #B8956B",
"k. c #A99978",
"l. c #B79872",
"z. c #A28A63",
"x. c #AEA66F",
"c. c #B5A867",
"v. c #B2AB76",
"b. c #C8B859",
"n. c #CEAC7C",
"m. c #C9A578",
"M. c #D4AE7D",
"N. c #D8AF7F",
"B. c #D4B17E",
"V. c #DAB37E",
"C. c #C7BA6D",
"Z. c #C29B6F",
"A. c #D5C256",
"S. c #F5DC46",
"D. c #F6DC56",
"F. c #ECD64F",
"G. c #FFEA55",
"H. c #FDE656",
"J. c #FFE645",
"K. c #D4C56D",
"L. c #D2C672",
"P. c #CEC16C",
"I. c #FEF66C",
"U. c #E7D563",
"Y. c #797B86",
"T. c #7F8285",
"R. c #8D8C8C",
"E. c #888686",
"W. c #989488",
"Q. c #8A8D95",
"!. c #94959B",
"~. c #9B9B9D",
"^. c #989595",
"/. c #8D9093",
"(. c #A69B8C",
"). c #A39D94",
"_. c #A9A69A",
"`. c #B0AB94",
"'. c #B5B28A",
"]. c #9B9DA2",
"[. c #9FA1A9",
"{. c #9EA4B1",
"}. c #A4A4A5",
"|. c #ACACAC",
" X c #A6A5AC",
".X c #B2ADA8",
"XX c #ABACB3",
"oX c #A8ABB5",
"OX c #B4B3B4",
"+X c #B2B4BB",
"@X c #BABBBB",
"#X c #B9B8B9",
"$X c #AFB0B3",
"%X c #DAB582",
"&X c #D8B583",
"*X c #CEB389",
"=X c #E2BC88",
"-X c #C3BCBA",
";X c #BDC0BF",
":X c #DCC097",
">X c #E8C28B",
",X c #EDDA82",
"<X c #C9C2BF",
"1X c #F8E982",
"2X c #B9BCC5",
"3X c #ACB5C5",
"4X c #BCC2CC",
"5X c #C2C3C4",
"6X c #C2C5CD",
"7X c #C6C9CD",
"8X c #CCCCCC",
"9X c #CBC6C4",
"0X c #C5C9D3",
"qX c #CCCDD2",
"wX c #C6CAD6",
"eX c #CBD0DD",
"rX c #D3D3D3",
"tX c #D3D6DA",
"yX c #DCDCDE",
"uX c #DBD7D7",
"iX c #D8CFCD",
"pX c #E4DCD9",
"aX c #EAE3DF",
"sX c #DBDDE4",
"dX c #D6D9E5",
"fX c #DEE2EB",
"gX c #E4E4E5",
"hX c #EBEBEB",
"jX c #E5E5E9",
"kX c #F2ECE9",
"lX c #EBEEF4",
"zX c #E7E9F5",
"xX c #EDF1FA",
"cX c #F3F3F4",
"vX c #F9F8F7",
"bX c #F4F6FC",
"nX c #F6F9FE",
"mX c #FFFFFF",
/* pixels */
"mXmXmXmXmXmXmXmXmXmXmXmXmXmXmXmXmXmXmXmXmXmXmXmXmXqXe Q.. T.mX|./.mXvXmXmXmXmXmXmXmXmXmXmXmXmXmXmXmXmXmXmXmXmXmXmXmXmXmXmXmXmXmX",
"mXmXmXmXmXmXmXmXmXmXmXmXmXmXmXmXmXmXmXmXmXmXmXmXmXR.lX[.gX{.0XmXXXjXmXmXmXmXmXmXmXmXmXmXmXmXmXmXmXmXmXmXmXmXmXmXmXmXmXmXmXmXmXmX",
"mXmXmXmXmXmXmXmXmXmXmXmXmXmXmXmXmXmXmXmXmXmXmXmX7X XvXr !.5 > 8 1 {.mXnXmXmXmXmXmXmXmXmXmXmXmXmXmXmXmXmXmXmXmXmXmXmXmXmXmXmXmXmX",
"mXmXmXmXmXmXmXmXmXmXmXmXmXmXmXmXmXmXmXmXmXmXnXmX$XfX].  z ,.4.*.A @ +XmXmXmXmXmXmXmXmXmXmXmXmXmXmXmXmXmXmXmXmXmXmXmXmXmXmXmXmXmX",
"mXmXmXmXmXmXmXmXmXmXmXmXmXmXmXmXmXmXmXmXmXmXmXmX#X!.  P 5.7.3.4.8.5.7 7XmXmXmXmXmXmXmXmXmXmXmXmXmXmXmXmXmXmXmXmXmXmXmXmXmXmXmXmX",
"mXmXmXmXmXmXmXmXmXmXmXmXmXmXmXmXmXmXmXmXmXmXvXmXT.% g P 4.4.4.4.5.&.w.e bXmXmXmXmXmXmXmXmXmXmXmXmXmXmXmXmXmXmXmXmXmXmXmXmXmXmXmX",
"mXmXmXmXmXmXmXmXmXmXmXmXmXmXmXmXmXmXmXmXmXmXmXmX1 ! l ! 7.3.4.4.4.4.7.p.XXmXvXmXmXmXmXmXmXmXmXmXmXmXmXmXmXmXmXmXmXmXmXmXmXmXmXmX",
"mXmXmXmXmXmXmXmXmXmXmXmXmXmXmXmXmXmXmXmXmXmXmXqX@ ` G o.7.4.4.&.4.4.&.S.^.mXmXmXmXmXmXmXmXmXmXmXmXmXmXmXmXmXmXmXmXmXmXmXmXmXmXmX",
"mXmXmXmXmXmXmXmXmXmXmXmXmXmXmXmXmXmXmXmXmXmXmX).H ` ` <.4.4.4.4.4.4.%.q.v.fXmXmXmXmXmXmXmXmXmXmXmXmXmXmXmXmXmXmXmXmXmXmXmXmXmXmX",
"mXmXmXmXmXmXmXmXmXmXmXmXmXmXmXmXmXmXmXmXmXmXnXm ^ Q Q <.4.4.&.4.4.4.4.7.b.+XmXmXmXmXmXmXmXmXmXmXmXmXmXmXmXmXmXmXmXmXmXmXmXmXmXmX",
"mXmXmXmXmXmXmXmXmXmXmXmXmXmXmXmXmXmXmXmXmXmXsXa ' W ` 3.4.4.4.4.4.4.4.&.F.|.mXmXmXmXmXmXmXmXmXmXmXmXmXmXmXmXmXmXmXmXmXmXmXmXmXmX",
"mXmXmXmXmXmXmXmXmXmXmXmXmXmXmXmXmXmXmXmXvXmX4Xz ' Q ` 3.4.4.4.4.4.4.4.&.S.`.mXmXmXmXmXmXmXmXmXmXmXmXmXmXmXmXmXmXmXmXmXmXmXmXmXmX",
"mXmXmXmXmXmXmXmXmXmXmXmXmXmXmXmXmXmXmXmXvXmX.XH ' ~ ` 3.4.4.4.4.4.4.4.%.w.`.nXmXmXmXmXmXmXmXmXmXmXmXmXmXmXmXmXmXmXmXmXmXmXmXmXmX",
"mXmXmXmXmXmXmXmXmXmXmXmXmXmXmXmXmXmXmXmXmXmX_.G | Q ~ 3.4.4.4.4.4.4.4.%.5.'.lXmXmXmXmXmXmXmXmXmXmXmXmXmXmXmXmXmXmXmXmXmXmXmXmXmX",
"mXmXmXmXmXmXmXmXmXmXmXmXmXmXmXmXmXmXmXmXnXmX`.) | ~ ~ 3.4.4.4.4.4.4.3.%.q.v.2XmXmXmXmXmXmXmXmXmXmXmXmXmXmXmXmXmXmXmXmXmXmXmXmXmX",
"mXmXmXmXmXmXmXmXmXmXmXmXmXmXmXmXmXmXmXmXmXmX_.C | Q ~ <.&.7.8.7.3.4.4.8.7.D.^.mXmXmXmXmXmXmXmXmXmXmXmXmXmXmXmXmXmXmXmXmXmXmXmXmX",
"mXmXmXmXmXmXmXmXmXmXmXmXmXmXmXmXmXmXmXmXmXmX.XC | ~ Q <.4.J f R 7.&.2.J D 6.'.lXmXmXmXmXmXmXmXmXmXmXmXmXmXmXmXmXmXmXmXmXmXmXmXmX",
"mXmXmXmXmXmXmXmXmXmXmXmXmXmXmXmXmXmXmXmXvXmXOXH ' Q Q ,.b [.6XE.I 2.7 $X3X9 h.nXmXmXmXmXmXmXmXmXmXmXmXmXmXmXmXmXmXmXmXmXmXmXmXmX",
"mXmXmXmXmXmXmXmXmXmXmXmXmXmXmXmXmXmXmXmXmXmX9XF ' Q ] j 0XmXmXmXf.> sXmXmXyXe mXmXmXmXmXmXmXmXmXmXmXmXmXmXvXmXmXmXmXmXmXmXmXmXmX",
"mXmXmXmXmXmXmXmXmXmXmXmXmXmXmXmXmXmXmXmXmXmXtXl ' ~ G ^.mXvXvXmXtXT.mXvXvXmX|.tXmXmXmXmXmXmXmXmXmXmXmXmXmXmXmXmXmXmXmXmXmXmXmXmX",
"mXmXmXmXmXmXmXmXvXwXcXmXmXmXmXmXmXmXmXmXmXmXjXj ^ ' l qXmXmXmXmXmX_.bXmXmXmX8X@XmXnXmXmXmXmXmXmXmXmXmXmXfX XlXmXmXmXmXmXmXmXmXmX",
"mXmXmXmXmXmXnXbXV @ V mXmXmXmXmXmXmXmXmXmXmXnXt.^ ^ n nXhXgXmXmXmXOXjXmXmXrX5X5XmXmXmXmXmXmXmXmXmXmXmXlX6 + w bXvXmXmXmXmXmXmXmX",
"mXmXmXmXmXlXq - g 5.Z oXmXmXmXmXmXmXmXmXmXmXmXk.! [ a.mXr e mXvXmX@XyXmXmXe T.7XmXmXmXmXmXmXmXmXmXmXmX^.z 1.l $ R.mXmXmXmXmXmXmX",
"mXmXmXvXmXE.U 2.s o.*.s.mXmXmXmXmXmXmXmXmXnXmX(.G G z.mX9X8XmXmXmX@XjXmXbXvX8X@XmXmXmXmXmXmXmXmXmXvXnXa.[ ,.j Q s 4XmXmXmXmXmXmX",
"mXmXmXmXfXj 4.8.J / 0.p.zXmXmXmXmXmXmXmXmXmXbX.Xy @ i.nXmXmXmXvXmX}.oXe 1 tX2X5XmXvXmXmXmXmXmXmXnXmX7X  % S F 1.=.k.mXmXmXmXmXmX",
"mXmXmXmXQ.s 1.7.>.@ ; O 2XmXvXmXmXmXmXmXvXmX!.q l & h sXmXmXmXmXmXq y.P.U.W.].hXmXmXmXmXmXmXmXmXmXnXm E { @ K 4.2.> fXmXmXmXmXmX",
"mXnXmX Xf ; H 8.J s 5.R w mXmXmXmXmXmXmXnXmXoX, : g p .XmXvXvXmX0XL e.4.e.m Y.mXmXmXmXmXmXmXmXmXmX7Xd 3.r._ P 8.; & w vXmXmXmXmX",
"mXmXxXy.8.2.; } f 5.&.8.L dXmXmXmXmXmXmXmXmXqXr X P d b dXmXmXnXB =.&.4.8.S ^.mXmXmXmXmXmXmXmXmXmX.XG 4.4.5.J g k 1.F 4XmXmXmXmX",
"mXmXdXJ -.4.I & ! 7.*.7.I 2XmXmXmXmXmXmXmXmX4X}.o ~ F ! 9 $X2XB } 7.5.4._ j '.mXmXmXmXmXmXmXmXvXmX).U ,.&.-.L % o.7.=.).mXmXmXmX",
"mXmX0Xg 4.&.5.@ o.;.S.6.{ +XmXmXmXmXmXmXmXmX9X6XM ^ / ] =.K K >.} P / x # # d.mXvXmXmXmXmXmXmXmXmX(.Y L #.;.p.S 4.2.>.g.mXmXmXmX",
"vXmX5X+ I 8.4.s $.7.c.I :.+XmXvXmXmXmXmXmXmXyXjXa.^ ( ` 7.0.f - $ # @ # l.:X8 6XmXmXmXmXmXmXmXmXmX(.Y } y.I.x.F r.I F x.mXmXmXmX",
"mXmXqXs @ <.8.f A.I.b 4.:.$XmXmXmXmXmXmXmXnXmX#XX d | ` 5.% 3 j.Z.j.j.n.%X&X*Xe sX7XmXmXmXmXmXvXmXW.^ 8.S f.# I 7.- K `.mXmXmXmX",
"mXmXfXk - K 9.; > < { -.A.$XmXmXmXmXmXmXmXmXlXy.9.{ / O.f N N.B.V.B.B.B.M.n.%Xk., q tXmXmXmXmXmXsX: ] -.K f } f :.f X.|.mXnXmXmX",
"mXmXbXt.a a s l ,.D ,.&.S.W.bXmXmXmXmXmXmXmXqXg & ` ( E * n.B.n.n.V.B.B.M.B.&Xl.*X*X$XmXmXmXmXmXE.G o.&.J 0.;.I > { b.0XmXmXmXmX",
"mXmXmXE.G & & ~ 7.I ,.&.q.c.#XmXmXmXmXmXmXmX8Xg @ l O.s M %XB.&XV.B.n.M.B.n.B.&X%Xl.#XmXvXnXmX3Xs  .o.3.J 4.3.7.&.w.f.lXmXmXmXmX",
"mXmXmXwXl @...~ 2.I 2.4.3.H.E.vXmXmXmXmXmXmXtXa K ] ~ = j.%XB.n.B.B.M.V.B.M.&Xj.z.f.tXmXmXmXlX8 Q / <.4.,.4.4.%.0.P.[.mXvXmXmXmX",
"mXmXmXnX9 E Q Q <.2.4.4.%.9.c.+XmXvXmXmXmXmXmXw H P P 7 m.B.M.&XB.M.B.n.&Xn.=X6 - W.bXmXvXmXQ.z ' [ 4.&.4.4.4.&.I.d.gXmXmXmXmXmX",
"mXmXmXmX2Xs ' Q ,.&.4.4.4.&.J.d.jXmXmXmXmXmXmXyX1 & E v n.&Xn.B.B.B.V.B.M.M.=X7 * #XmXmXmXwX: ' W ,.4.3.4.4.&.G.h.+XmXmXmXmXmXmX",
"mXmXmXvXmXe G ~ o.&.4.4.4.4.7.b.!.mXmXmXmXmXmXmXsXc ) v B.B.B.M.N.B.M.V.M.M.V.n.k.;XmXnXnX8 E ( o.4.4.4.4.4.7.K.!.mXmXmXmXmXmXmX",
"mXmXmXmXmXwXa ' ` 3.4.4.4.4.%.w.s.6XmXmXmXmXmXmXfXk E v n.M.M.M.B.M.M.M.M.M.z.>Xa.7XmXmXQ.g ' Q 3.&.4.4.4.%.J.s.tXmXmXmXmXmXmXmX",
"mXmXmXmXmXmXw E Q <.4.4.4.4.4.&.D.d.cXmXmXmXmXmXzXn E v *Xn.M.M.B.M.M.%XM.=Xm , e vXmX4X=  .W ,.-.4.4.4.4.&.U.^.mXmXmXmXmXmXmXmX",
"mXmXmXmXmXmX|.z ' ] 4.4.4.&.4.3.7.C.].mXmXmXmXmXxXn ^ h m.%XM.N.%XM.M.N.B.V.f.6XcXmXxX4 ! ( ] 4.4.4.4.4.%.w.x.5XmXmXmXmXmXmXmXmX",
"mXmXmXmXmXmXlX7 ~ Q <.4.4.4.4.4.&.w.s.6XmXmXmXmXxXb ' = j.%XN.M.M.B.M.M.%Xj.~.mXvXmXe z ..Q <.&.4.4.4.4.&.D.R.nXmXmXmXmXmXmXmXmX",
"mXmXmXmXmXmXmX^.H | ] 4.4.4.4.4.&.&.S.d.zXmXvXmXxXb @.d M =Xn.N.&XB.B.M.B.w hXmXmX X& O.Q o.4.4.4.4.4.&.9.v.+XmXmXmXmXmXmXmXmXmX",
"mXmXmXmXmXmXmXsXh ' Q <.&.4.4.4.4.4.0.A./.nXmXmXxXn ^ Q * &XB.B.M.n.n.>XN $XmXmXeX# ' Q ` 4.4.4.4.3.4.%.H.f.lXmXmXmXmXmXmXmXmXmX",
"mXmXmXmXmXmXmXmXd.C | ] 4.4.4.4.4.4.&.q.p. XhXmXlXn ^ ( g 6 >XV.B.%X>Xm R.mXtX2 . Q ` W <.4.4.4.4.4.4.7.C. XmXvXmXmXmXmXmXmXmXmX",
"mXmXmXmXmXmXmXmXwXh ' Q ,.4.3.4.4.4.4.&.q.j . |.xXn [ ' +.D 6 m.M.l.7 < yXmXT.|.w g ' [ &.4.4.4.4.4.%.H.f.gXmXmXmXmXmXmXmXmXmXmX",
"mXmXmXmXmXmXmXmXmXV E ( ` 4.&.4.4.4.4.4.&.5.* 0 2XS W x y R ; @ $ @ X.v.fX4XE.kXgXr H 4.4.4.4.4.4.%.7.P.[.mXmXmXmXmXmXmXmXmXmXmX",
"mXmXmXmXmXmXmXmXmX6Xa ' Q o.&.4.4.4.4.&.3.-.L +X0 $ < 4 E.~._.V { 7.e.j.t 2 .XpXpXuX9 *.4.4.4.4.4.%.H.g.sXmXmXmXmXmXmXmXmXmXmXmX",
"mXmXmXmXmXmXmXmXmXmXB E ( ~ 4.4.4.4.4.4.4.&.u.nXV /.jXjXvXmXmXjXt.&.7.c.|.9XR.pXiXhXdXS 7.4.4.4.4.9.K.~.mXvXmXmXmXmXmXmXmXmXmXmX",
"mXmXmXmXmXmXmXmXmXmX2Xs ..W o.7.3.4.4.4.4.*.s.mXuXV pXpXmXmXcX.X+XA 8.C.~.uX|.iXpXvXmX^.T 7.4.4.&.G.g.tXmXmXmXmXmXmXmXmXmXmXmXmX",
"mXmXmXmXmXmXmXmXmXmXmXw E ~ Q 3.4.4.4.4.7.T ).mXvXR.-XkXmXmXgXOXbXj 7.C.e vXOX<XcXmXmXjXy.&.4.5.4.L.!.mXmXmXmXmXmXmXmXmXmXmXmXmX",
"mXmXmXmXmXmXmXmXmXvXmX4X; ' Q @.7.&.4.4.7._ 0XmXmX#X^.vXmXmXtX;XmX^.$.b.Y.mXOX<XmXmXvXmX}.T 4.%.G.W.sXmXmXmXmXmXmXmXmXmXmXmXmXmX",
"mXmXmXmXmXmXmXmXmXmXmXmXV G ` Q <.4.4.4.&.u.lXmXmXhXR.mXvXmX9X8XmXeXL A.T.vX8X@XmXmXmXmXfXL -.4.L.~.mXvXmXmXmXmXmXmXmXmXmXmXmXmX",
"mXmXmXmXmXmXmXmXmXmXmXmXwX& ' W ] &.&.7.$.g.mXvXmXmX^.hXmXmX@XyXmXmXs.t.6X#XhXOXmXvXmXmXmXW.=.G.f.fXmXmXmXmXmXmXmXmXmXmXmXmXmXmX",
"mXmXmXmXmXmXmXmXmXmXmXvXmXT.H  .W <.4.-._ 5XmXmXmXmXOX.XuXrX/.hXmXmX8X+XmX}.cX@XmXmXmXmXmX5XX.L.[.mXnXmXmXmXmXmXmXmXmXmXmXmXmXmX",
"mXmXmXmXmXmXmXmXmXmXmXmXmXsX: ` W ] 3.&.u.xXmXmXmXmXyXq /.E.}.mXmXmXmXmXmX}.r $XmXvXmXmXmXhXk.g.hXmXmXmXmXmXmXmXmXmXmXmXmXmXmXmX",
"mXmXmXmXmXmXmXmXmXmXmXmXmXmX!.g ..W 1.#.).mXmXmXmXmXcX#XmXmXmXmXmXmXmXvXmX5X}.mXmXmXmXmXmXmXr |.mXmXmXmXmXmXmXmXmXmXmXmXmXmXmXmX",
"mXmXmXmXmXmXmXmXmXmXmXmXmXmXnX6 W Q @.S sXmXmXmXmXmXvX#XmXmXmXmXmXmXmXmXmXhX|.mXmXmXmXmXnXmX|.yXmXmXmXmXmXmXmXmXmXmXmXmXmXmXmXmX",
"mXmXmXmXmXmXmXmXmXmXmXmXmXmXmX3Xs @.C E.mXmXmXmXmXmXmX5XvXmXmXmXmXmXmXmXmXmX}.vXmXmXmXmXmXmX#XgXmXmXmXmXmXmXmXmXmXmXmXmXmXmXmXmX",
"mXmXmXmXmXmXmXmXmXmXmXmXmXmXvXmXr G h dXmXmXmXmXmXmXmXhXmXmXmXmXmXmXmXmXmXmX|.hXmXmXmXmXmXcXR.mXmXmXmXmXmXmXmXmXmXmXmXmXmXmXmXmX",
"mXmXmXmXmXmXmXmXmXmXmXmXmXmXmXmX~.X V hXmXmXmXmXmXmXmXmXmXmXmXmXmXmXmXmXvXmX#X8XmXmXmXmXmX|.+XmXnXmXmXmXmXmXmXmXmXmXmXmXmXmXmXmX",
"mXmXmXmXmXmXmXmXmXmXmXmXmXmXvXmX).2 uXpXhXmXmXmXmXmXmXmXmXmXmXmXmXmXmXmXmXmX8X#XmXvXmXmXyXE.mXmXmXmXmXmXmXmXmXmXmXmXmXmXmXmXmXmX",
"mXmXmXmXmXmXmXmXmXmXmXmXmXmXmXmXrXE.pXuXuXvXmXmXmXmXmXmXmXmXmXmXmXmXmXmXmXmXjX$XmXmXmXcXe fXmXmXmXmXmXmXmXmXmXmXmXmXmXmXmXmXmXmX"
};
